<?xml version="1.0" encoding="utf-8"?>
<!-- Generator: Adobe Illustrator 24.2.1, SVG Export Plug-In . SVG Version: 6.00 Build 0)  -->
<svg version="1.1" id="图层_1" xmlns="http://www.w3.org/2000/svg" xmlns:xlink="http://www.w3.org/1999/xlink" x="0px" y="0px"
	 viewBox="0 0 1000 1000" style="enable-background:new 0 0 1000 1000;" xml:space="preserve">
<style type="text/css">
	.st0{fill:#FFFFFF;}
</style>
<g>
	<path d="M350,426.9v292.4c0,11.5,10.3,21.6,21.8,21.6h272.1c11.5,0,20-10,20-21.6V426.9H350z M632.5,625.1
		c0,5.8-4.7,10.5-10.5,10.5c-5.8,0-10.5-4.7-10.5-10.5v-62.8c0-5.8,4.7-10.5,10.5-10.5c5.8,0,10.5,4.7,10.5,10.5V625.1z M623,530.9
		c-5.8,0-10.5-4.7-10.5-10.5c0-5.8,4.7-10.5,10.5-10.5s10.5,4.7,10.5,10.5S628.7,530.9,623,530.9z"/>
	<path d="M744.5,217.6H330.2c-71.1,0-84.5,35.9-84.5,52c39.6,5.6,41.4,6.2,41.4,48.1c0,20.9,0,401.6,0,401.6
		c0,46.2,38.4,84.4,84.6,84.4h271.8c46.2,0,83.1-38.2,83.1-84.4c0,0,0-414.4,0-438.9c0-26.6,16.1-50.1,17.7-52.6
		c1.6-2.5,3.9-5,3.9-6.5C748.3,219.8,747.8,217.6,744.5,217.6z M684.9,280.4v438.9c0,23.4-16.3,42.5-39,42.5H371.8
		c-23,0-42.8-19.5-42.8-42.5V317.6c0-15.4,1.4-48.7-5-57.5c1.2-1,4.1-0.7,5.9-0.7h356.6C685.6,259.4,684.9,273.6,684.9,280.4z"/>
</g>
<path d="M376.5,735.7l-18.2-11.3c-4.6-2.9-6-8.9-3.2-13.5L740.5,90.4c2.9-4.6,8.9-6,13.5-3.2l18.2,11.3c4.6,2.9,6,8.9,3.2,13.5
	L390,732.5C387.1,737.1,381.1,738.5,376.5,735.7z"/>
<path class="st0" d="M556.8,426.9L384.4,734.3c-2.6,4.6-8.1,6.1-12.3,3.2l-16.5-11.3c-4.2-2.9-5.5-9-2.9-13.6L513,426.9H556.8z"/>
</svg>
